<?xml version="1.0" encoding="UTF-8"?>
<svg width="441px" height="512px" viewBox="0 0 441 512" version="1.1" xmlns="http://www.w3.org/2000/svg" xmlns:xlink="http://www.w3.org/1999/xlink">
    <!-- Generator: Sketch 52.4 (67378) - http://www.bohemiancoding.com/sketch -->
    <title>logo</title>
    <desc>Created with Sketch.</desc>
    <g id="Page-1" stroke="none" stroke-width="1" fill="none" fill-rule="evenodd">
        <g id="logo" fill="#F57500" fill-rule="nonzero">
            <path d="M220.895,363.795 C190.806,363.795 161.374,353.357 138.018,334.402 L32.996,249.17 C-9.529,215.89 -9.523,147.695 32.996,114.42 L138.018,29.188 C184.602,-9.73 257.189,-9.728 303.772,29.188 L408.794,114.42 C435.632,136.201 446.982,171.816 437.711,205.154 C434.751,215.795 423.731,222.025 413.083,219.064 C402.441,216.105 396.214,205.079 399.174,194.437 C404.178,176.442 398.061,157.225 383.587,145.479 L278.565,60.246 C245.149,33.127 196.641,33.127 163.225,60.246 L58.203,145.479 C35.275,163.423 35.278,200.171 58.203,218.112 L163.225,303.344 C196.583,330.416 244.983,330.464 278.394,303.482 L295.937,288.561 C304.35,281.405 316.972,282.422 324.129,290.837 C331.285,299.251 330.267,311.873 321.853,319.029 L304.126,334.107 C304.009,334.207 303.891,334.305 303.772,334.402 C280.417,353.357 250.984,363.795 220.895,363.795 Z M303.772,482.402 L408.794,397.17 C451.319,363.89 451.313,295.695 408.794,262.42 L303.772,177.188 C257.188,138.27 184.601,138.272 138.018,177.188 L123.212,189.332 C103.363,206.976 127.414,236.267 148.577,220.26 L163.258,208.22 C196.675,181.13 245.161,181.138 278.565,208.247 L383.587,293.479 C406.515,311.423 406.512,348.171 383.587,366.112 L278.565,451.344 C245.149,478.463 196.641,478.463 163.225,451.344 L58.203,366.112 C44.943,355.35 38.601,338.202 41.652,321.361 C43.621,310.492 36.406,300.085 25.538,298.116 C14.676,296.15 4.263,303.361 2.293,314.23 C-3.359,345.431 8.405,377.212 32.996,397.17 L138.018,482.402 C161.373,501.356 190.806,511.795 220.895,511.795 C250.984,511.795 280.417,501.357 303.772,482.402 Z" id="Shape"></path>
        </g>
    </g>
</svg>